<mxfile host="app.diagrams.net" modified="2024-01-04T07:28:20.936Z" agent="Mozilla/5.0 (Windows NT 10.0; Win64; x64) AppleWebKit/537.36 (KHTML, like Gecko) Chrome/119.0.0.0 Safari/537.36" etag="mk1KlG9GP9HWlDaQW5zw" version="22.1.16" type="github">
  <diagram name="第 1 页" id="SPCY4sjMRmm0NcjuiNyU">
    <mxGraphModel dx="1050" dy="557" grid="1" gridSize="10" guides="1" tooltips="1" connect="1" arrows="1" fold="1" page="1" pageScale="1" pageWidth="827" pageHeight="1169" math="0" shadow="0">
      <root>
        <mxCell id="0" />
        <mxCell id="1" parent="0" />
        <mxCell id="0-277O36P96OIKh_NpkG-1" value="调畅情志" style="ellipse;whiteSpace=wrap;html=1;fontSize=15;" vertex="1" parent="1">
          <mxGeometry x="450" y="150" width="80" height="50" as="geometry" />
        </mxCell>
        <mxCell id="0-277O36P96OIKh_NpkG-2" value="气机" style="ellipse;whiteSpace=wrap;html=1;fontSize=16;" vertex="1" parent="1">
          <mxGeometry x="320" y="230" width="90" height="50" as="geometry" />
        </mxCell>
        <mxCell id="0-277O36P96OIKh_NpkG-4" value="肝" style="ellipse;whiteSpace=wrap;html=1;fontSize=16;" vertex="1" parent="1">
          <mxGeometry x="140" y="230" width="90" height="50" as="geometry" />
        </mxCell>
      </root>
    </mxGraphModel>
  </diagram>
</mxfile>
